<svg xmlns="http://www.w3.org/2000/svg" viewBox="0 0 2000 2000"><g id="background"><rect width="2000" height="2000"/></g><g id="robot"><path d="M1604,741.54v-6a170.44,170.44,0,0,0-170-170H566a170.44,170.44,0,0,0-170,170v16.21c-58.37,9.8-103,60.68-103,121.79v274a123.69,123.69,0,0,0,103.07,121.8A170.46,170.46,0,0,0,566,1434.5h868a170.44,170.44,0,0,0,170-170v-5c58.86-9.38,104-60.5,104-122v-274C1708,802,1662.86,750.92,1604,741.54ZM396,1228.45a83.66,83.66,0,0,1-63-81v-274a83.66,83.66,0,0,1,63-81ZM1564,741.71V1264.5c0,71.68-58.32,130-130,130H566c-1.11,0-2.21,0-3.31,0l-1.1,0-2.19-.09-1.32-.08c-.65,0-1.31-.07-2-.12l-1.42-.13-1.83-.16-1.46-.16-1.77-.2-1.48-.21c-.57-.08-1.15-.15-1.72-.24l-1.5-.24-1.67-.28-1.51-.28-1.64-.32-1.52-.32-1.6-.35-1.53-.37-1.56-.38-1.54-.41-1.52-.41-1.54-.45-1.49-.44-1.54-.49-1.46-.47-1.54-.54-1.42-.5-1.55-.57-1.38-.53-1.56-.62-1.34-.55-1.56-.66-1.3-.58-1.56-.7-1.26-.6-1.57-.76-1.21-.6-1.58-.81-1.17-.62-1.57-.86-1.13-.63c-.53-.3-1.06-.6-1.58-.91l-1.08-.64-1.59-1-1-.65q-.81-.49-1.59-1l-1-.64-1.6-1.08-.92-.65-1.62-1.14-.87-.63-1.62-1.21-.8-.62q-.84-.63-1.65-1.29l-.74-.59-1.66-1.36-.67-.57-1.68-1.44-.6-.53-1.71-1.54-.51-.47-1.74-1.65-.42-.41-1.79-1.76c-.1-.11-.2-.22-.31-.32-.62-.63-1.23-1.27-1.83-1.91l-.21-.21c-.63-.68-1.27-1.37-1.89-2.06l-.07-.07a129.49,129.49,0,0,1-33.26-81.92h0c-.06-1.64-.1-3.29-.1-4.94v-529c0-71.68,58.32-130,130-130h868c71.68,0,130,58.32,130,130Zm104,395.79a83.64,83.64,0,0,1-64,81.18V782.32a83.64,83.64,0,0,1,64,81.18Z" style="fill:#fff"/><path d="M1302.51,1159.58,664.92,1104a187.5,187.5,0,0,1,32.57-373.58L1335.08,786a187.5,187.5,0,0,1-32.57,373.58ZM694,770.27c-81-7.07-152.69,53.1-159.75,134.13s53.1,152.69,134.13,159.75L1306,1119.73c81,7.07,152.69-53.1,159.75-134.13s-53.1-152.69-134.13-159.75Z" style="fill:#fff"/><path d="M672.15,1049.92A130.64,130.64,0,0,1,553.48,908.58c6.25-71.68,69.65-124.92,141.34-118.67s124.92,69.65,118.67,141.34S743.83,1056.17,672.15,1049.92Zm19.19-220.16a90.5,90.5,0,1,0,82.3,98A90.6,90.6,0,0,0,691.34,829.76Z" style="fill:#fff"/><path d="M1305.75,1105.16c-71.69-6.25-124.93-69.66-118.68-141.34s69.66-124.92,141.34-118.67,124.93,69.65,118.68,141.34S1377.43,1111.41,1305.75,1105.16ZM1324.94,885a90.5,90.5,0,1,0,82.3,98A90.62,90.62,0,0,0,1324.94,885Z" style="fill:#fff"/></g></svg>
