<svg xmlns="http://www.w3.org/2000/svg" viewBox="0 0 2000 1228"><path d="M1853.08,248.87v-8.53c0-63.92-25-124.17-70.53-169.64S1676.83.17,1612.91.17H386.67C322.76.17,262.51,25.22,217,70.7s-70.52,105.72-70.52,169.64v22.9C64,277.07,1,349,1,435.29V822.38c0,86.37,63.1,158.27,145.61,172.07,1.71,61.38,26.56,119,70.42,162.85,45.48,45.48,105.73,70.53,169.64,70.53H1612.91c63.92,0,124.17-25,169.64-70.53s70.53-105.72,70.53-169.64v-7.12C1936.24,967.29,2000,895.08,2000,808.25V421.16C2000,334.33,1936.24,262.12,1853.08,248.87ZM146.51,936.73a118.16,118.16,0,0,1-89-114.35V435.29a118.16,118.16,0,0,1,89-114.35ZM1796.57,249.11V987.66c0,101.27-82.39,183.66-183.66,183.66H386.67q-2.34,0-4.68-.06l-1.54-.06c-1,0-2.07-.07-3.11-.12l-1.86-.11-2.76-.18-2-.17-2.59-.23-2.06-.23c-.83-.1-1.67-.18-2.5-.29l-2.09-.29c-.81-.11-1.62-.21-2.43-.34s-1.42-.23-2.12-.34l-2.37-.39-2.13-.41c-.77-.14-1.54-.28-2.31-.44s-1.44-.3-2.16-.46l-2.25-.49-2.17-.52-2.19-.53-2.19-.58-2.14-.58-2.18-.64-2.1-.62-2.18-.7-2.05-.67c-.74-.24-1.46-.49-2.19-.75s-1.34-.46-2-.71-1.46-.53-2.18-.81l-2-.74L318,1158l-1.9-.77-2.2-.94-1.84-.81-2.2-1-1.78-.84-2.21-1.07-1.72-.85c-.75-.38-1.49-.76-2.22-1.15l-1.66-.87-2.22-1.21-1.6-.9c-.75-.42-1.49-.85-2.23-1.28l-1.53-.91c-.75-.45-1.5-.9-2.24-1.36l-1.46-.91-2.25-1.44-1.39-.91-2.26-1.53-1.31-.91-2.28-1.61-1.22-.9c-.77-.56-1.54-1.13-2.3-1.71l-1.13-.87c-.78-.6-1.56-1.2-2.33-1.81l-1-.84-2.35-1.93-.95-.8c-.79-.67-1.59-1.35-2.38-2l-.83-.74-2.42-2.18-.72-.67c-.83-.77-1.65-1.54-2.47-2.33l-.58-.57c-.85-.82-1.69-1.66-2.53-2.5l-.44-.45c-.87-.89-1.74-1.78-2.59-2.69l-.29-.3c-.9-1-1.79-1.93-2.68-2.91l-.09-.1a182.93,182.93,0,0,1-47-115.73h0c-.08-2.32-.14-4.64-.14-7V240.34c0-101.27,82.39-183.66,183.65-183.66H1612.91c101.27,0,183.66,82.39,183.66,183.66Zm146.92,559.14a118.14,118.14,0,0,1-90.41,114.68V306.48c51.79,12.45,90.41,59.13,90.41,114.68Z" style="fill:#fff"/><path d="M1427.15,839.45,526.43,760.92c-70.23-6.12-134-39.41-179.64-93.74S279.42,544.26,285.55,474,325,340,379.29,294.4,502.21,227,572.44,233.15l900.72,78.53c70.23,6.12,134,39.41,179.64,93.74s67.36,122.92,61.24,193.15-39.41,134-93.74,179.63S1497.38,845.57,1427.15,839.45Zm-859.62-550c-114.47-10-215.71,75-225.69,189.49s75,215.71,189.49,225.69l900.73,78.52c114.46,10,215.71-75,225.69-189.49S1582.72,378,1468.25,368Z" style="fill:#fff"/><path d="M536.63,684.53C435.36,675.7,360.15,586.12,369,484.85s98.4-176.48,199.67-167.65,176.49,98.4,167.66,199.68S637.9,693.36,536.63,684.53Zm27.12-311c-70.23-6.13-132.35,46-138.48,116.26A128,128,0,0,0,541.54,628.23C611.77,634.35,673.89,582.2,680,512S634,379.62,563.75,373.5Z" style="fill:#fff"/><path d="M1431.73,762.56c-101.28-8.83-176.48-98.4-167.66-199.67s98.41-176.49,199.68-167.66,176.48,98.41,167.65,199.68S1533,771.39,1431.73,762.56Zm27.11-311c-70.23-6.12-132.35,46-138.47,116.26s46,132.35,116.26,138.47S1569,660.23,1575.11,590A128,128,0,0,0,1458.84,451.53Z" style="fill:#fff"/></svg>
